<?xml version="1.0" encoding="UTF-8"?>
<!DOCTYPE svg PUBLIC "-//W3C//DTD SVG 1.1//EN" "http://www.w3.org/Graphics/SVG/1.1/DTD/svg11.dtd">
<!-- Creator: CorelDRAW 2018 (64-Bit) -->
<svg xmlns="http://www.w3.org/2000/svg" xml:space="preserve" width="344px" height="500px" version="1.1" shape-rendering="geometricPrecision" text-rendering="geometricPrecision" image-rendering="optimizeQuality" fill-rule="evenodd" clip-rule="evenodd"
viewBox="0 0 349.45 507.46"
 xmlns:xlink="http://www.w3.org/1999/xlink">
 <g id="Layer_x0020_1">
  <metadata id="CorelCorpID_0Corel-Layer"/>
  <g id="_2061204532480">
   <path fill="#FEFEFE" d="M31.87 174.24c24.19,2.94 62.69,-3.44 83.33,3.48 56.34,18.87 43.45,79.15 43.45,131.82 0,28.77 0,57.53 0,86.29l64.06 0.95c0,-39.79 0,-79.53 0,-119.26 0,-39.72 2.07,-72.58 -16.88,-103.22 -34.38,-55.6 -85.9,-70.29 -173.6,-63.24l-0.36 63.18z"/>
   <path fill="#FEFEFE" d="M1.09 443.4c-1.86,7.51 -0.77,52.83 -0.77,64.06 73.49,-0.61 125.59,-58.21 127.19,-123.13 0.58,-23.66 1.79,-60.55 -0.42,-83.25l-62.84 0.05c-2.18,27.43 3.68,75.22 -3.42,98.24 -7.35,23.85 -29.33,43.47 -59.74,44.03z"/>
   <polygon fill="#FECC17" points="222.22,174.23 349.45,174.76 349.41,111.07 222.48,110.75 "/>
   <polygon fill="#0E7C60" points="0.33,269.51 127.53,269.51 127.53,205.92 1.22,205.92 "/>
   <path fill="#FEFEFE" d="M200.7 0l-21.15 0c-12.04,7.25 -19.32,6.72 -26.98,17.93 -25.27,36.98 1.61,78.21 39.03,77.31 38.2,-0.92 61.19,-44.29 35.94,-77.79 -8.85,-11.72 -14.16,-9.86 -26.84,-17.45z"/>
  </g>
 </g>
</svg>
